<?xml version="1.0" encoding="UTF-8" standalone="no"?>
<!-- Created with Inkscape (http://www.inkscape.org/) -->

<svg
   width="84.068413mm"
   height="94.485649mm"
   viewBox="0 0 84.068413 94.485649"
   version="1.1"
   id="svg1"
   inkscape:version="1.3 (0e150ed, 2023-07-21)"
   sodipodi:docname="memCard.svg"
   xml:space="preserve"
   inkscape:export-filename="memCard700.png"
   inkscape:export-xdpi="88.900002"
   inkscape:export-ydpi="88.900002"
   xmlns:inkscape="http://www.inkscape.org/namespaces/inkscape"
   xmlns:sodipodi="http://sodipodi.sourceforge.net/DTD/sodipodi-0.dtd"
   xmlns="http://www.w3.org/2000/svg"
   xmlns:svg="http://www.w3.org/2000/svg"><sodipodi:namedview
     id="namedview1"
     pagecolor="#ffffff"
     bordercolor="#cccccc"
     borderopacity="1"
     inkscape:showpageshadow="false"
     inkscape:pageopacity="1"
     inkscape:pagecheckerboard="false"
     inkscape:deskcolor="#d1d1d1"
     inkscape:document-units="mm"
     showguides="true"
     showgrid="false"
     inkscape:zoom="0.91582981"
     inkscape:cx="369.0642"
     inkscape:cy="354.86943"
     inkscape:window-width="1800"
     inkscape:window-height="1097"
     inkscape:window-x="-1"
     inkscape:window-y="45"
     inkscape:window-maximized="0"
     inkscape:current-layer="layer2"
     showborder="false"
     labelstyle="default"
     inkscape:clip-to-page="false"><inkscape:grid
       id="grid2"
       units="mm"
       originx="-330.21991"
       originy="-212.45183"
       spacingx="0.99999998"
       spacingy="1"
       empcolor="#0099e5"
       empopacity="0.30196078"
       color="#0099e5"
       opacity="0.14901961"
       empspacing="5"
       dotted="false"
       gridanglex="30"
       gridanglez="30"
       visible="false" /></sodipodi:namedview><defs
     id="defs1" /><g
     inkscape:label="Layer 1"
     inkscape:groupmode="layer"
     id="layer1"
     transform="matrix(0.79439913,0,0,0.79439913,-60.75653,-34.406391)"
     style="display:inline"><path
       style="fill:#ffffff;fill-opacity:0.994175;stroke:#000000;stroke-width:9.90964;stroke-linecap:round;stroke-dasharray:none;paint-order:markers stroke fill"
       d="m 81.559425,48.266033 v 59.457817 c 0,3.30321 1.878149,4.31889 1.858435,6.60642 -0.01982,2.29902 -1.981928,4.30732 -1.981928,6.60642 0,2.29911 1.981928,4.30732 1.981928,6.60643 -2e-6,2.2991 -1.981928,4.30732 -1.981928,6.60642 -10e-7,2.2991 1.962113,4.30741 1.981928,6.60643 0.01971,2.28752 -1.858435,3.3032 -1.858435,6.60642 0,3.30321 -0.123493,4.62449 2.519077,7.26706 2.642571,2.64257 7.267066,2.64257 7.267066,2.64257 h 75.973872 c 0,0 4.6245,0 7.26706,-2.64257 2.64257,-2.64257 2.76607,-3.96385 2.76607,-7.26706 0,-3.30322 -1.4246,-4.35233 -1.44478,-6.60642 -0.0201,-2.24567 1.32128,-4.36068 1.32128,-6.60643 0,-2.24576 -1.32128,-4.36067 -1.32128,-6.60642 0,-2.24575 1.32128,-4.36067 1.32128,-6.60643 0,-2.24575 -1.34139,-4.36075 -1.32128,-6.60642 0.0201,-2.25409 1.44478,-3.30321 1.44478,-6.60642 V 48.266033 Z"
       id="path2"
       sodipodi:nodetypes="csaaaaazscczzaaaaazcc" /><path
       sodipodi:type="star"
       style="fill:none;stroke:#000000;stroke-width:6.38698;stroke-linecap:round;stroke-dasharray:none;paint-order:markers stroke fill"
       id="path3"
       inkscape:flatsided="true"
       sodipodi:sides="3"
       sodipodi:cx="90.000008"
       sodipodi:cy="29.999996"
       sodipodi:r1="5"
       sodipodi:r2="2.5"
       sodipodi:arg1="0"
       sodipodi:arg2="1.0471976"
       inkscape:rounded="0"
       inkscape:randomized="0"
       d="m 95.000008,29.999996 -7.5,4.330127 v -8.660254 z"
       inkscape:transform-center-x="0.078874056"
       transform="matrix(0.83778003,0.38909239,-0.47896429,0.68058074,68.445187,5.006651)"
       inkscape:transform-center-y="-0.39771493" /></g><g
     inkscape:groupmode="layer"
     id="layer2"
     inkscape:label="Layer 2"
     style="display:inline"
     transform="matrix(0.79439913,0,0,0.79439913,-60.75653,-34.406391)"><path
       style="fill:#eb5a5a;fill-opacity:1;stroke:none;stroke-width:4.33523;stroke-linecap:round;stroke-dasharray:none;paint-order:markers stroke fill"
       d="m 91.737636,98.139776 c 0.207674,18.537834 36.335334,40.590934 37.986934,40.623174 1.65161,-0.0322 37.77926,-22.08535 37.98694,-40.623174 0.11104,-9.91187 -3.30321,-22.17009 -19.81927,-22.17009 -16.51606,0 -18.16767,9.92629 -18.16767,9.92629 0,0 -1.6516,-9.92629 -18.16765,-9.92629 -16.516072,0 -19.930325,12.25822 -19.819284,22.17009 z"
       id="path4"
       sodipodi:nodetypes="acazcza"
       inkscape:transform-center-x="2.0630075"
       inkscape:transform-center-y="2.8167994" /></g><g
     inkscape:groupmode="layer"
     id="layer3"
     inkscape:label="Layer 3"
     style="display:none"
     transform="translate(-87.370683,-56.211214)"><g
       style="fill:#000000"
       id="g1"
       transform="matrix(1.6629,0,0,1.6253645,55.348454,76.736266)"><path
         d="M 52.16,0.249 C 51.943,0.059 51.657,-0.026 51.372,0.008 l -31,4 C 19.873,4.072 19.5,4.497 19.5,5 v 6 28.623 C 17.674,37.428 14.773,36 11.5,36 c -5.514,0 -10,4.037 -10,9 0,4.963 4.486,9 10,9 5.514,0 10,-4.037 10,-9 V 11.88 l 29,-3.742 V 30.623 C 48.674,28.428 45.773,27 42.5,27 c -5.514,0 -10,4.037 -10,9 0,4.963 4.486,9 10,9 5.514,0 10,-4.037 10,-9 V 7 1 c 0,-0.288 -0.124,-0.562 -0.34,-0.751 z"
         id="path1" /></g></g></svg>
